<svg width="200" height="56" viewBox="0 0 200 56" fill="none" xmlns="http://www.w3.org/2000/svg">
<path d="M0.416953 21L4.78441 7.9043H8.93569L13.4381 21H9.95695L8.13481 15.2745C7.84466 14.322 7.5634 13.3087 7.29106 12.2347C7.01872 11.1607 6.7459 10.0447 6.47262 8.88692H7.1631C6.90013 10.0475 6.64513 11.1663 6.3981 12.2431C6.15107 13.32 5.88903 14.3304 5.612 15.2745L3.86229 21H0.416953ZM3.38204 18.2121V15.8447H10.4731V18.2121H3.38204ZM18.3586 24.8848C17.5029 24.8848 16.7554 24.7769 16.116 24.5612C15.4766 24.3454 14.96 24.044 14.5661 23.6569C14.1722 23.2699 13.9151 22.8197 13.7946 22.3064L16.4605 21.7608C16.521 21.9394 16.6296 22.104 16.7864 22.2545C16.9432 22.4051 17.151 22.5254 17.4097 22.6152C17.6685 22.7051 17.9803 22.7501 18.3452 22.7501C18.9701 22.7501 19.4502 22.6093 19.7856 22.3278C20.121 22.0464 20.2887 21.6127 20.2887 21.0267V19.2851H20.0591C19.9389 19.5795 19.7632 19.8466 19.5321 20.0866C19.301 20.3266 19.0087 20.517 18.6553 20.6576C18.3019 20.7982 17.88 20.8685 17.3897 20.8685C16.6713 20.8685 16.0143 20.7003 15.4185 20.3638C14.8227 20.0274 14.3465 19.5062 13.9899 18.8003C13.6333 18.0943 13.455 17.1886 13.455 16.083C13.455 14.9358 13.6393 13.9908 14.0078 13.2482C14.3764 12.5056 14.8589 11.9537 15.4554 11.5925C16.0519 11.2314 16.695 11.0508 17.3848 11.0508C17.9062 11.0508 18.3526 11.1392 18.7239 11.316C19.0951 11.4929 19.4022 11.7205 19.6451 11.9989C19.8881 12.2774 20.0719 12.5646 20.1966 12.8606H20.2859V11.1738H23.3135V20.7806C23.3135 21.6823 23.1042 22.4379 22.6855 23.0475C22.2667 23.6571 21.6858 24.1157 20.9426 24.4233C20.1994 24.731 19.3381 24.8848 18.3586 24.8848ZM18.4416 18.6206C18.8344 18.6206 19.1679 18.52 19.4423 18.3188C19.7166 18.1176 19.927 17.8263 20.0733 17.445C20.2197 17.0637 20.2929 16.6069 20.2929 16.0746C20.2929 15.5377 20.2201 15.0731 20.0744 14.6808C19.9287 14.2886 19.7187 13.985 19.4444 13.7701C19.1701 13.5552 18.8358 13.4477 18.4416 13.4477C18.0476 13.4477 17.7138 13.5573 17.4403 13.7765C17.1668 13.9956 16.9594 14.3016 16.8182 14.6946C16.677 15.0875 16.6064 15.5475 16.6064 16.0746C16.6064 16.6015 16.6774 17.0559 16.8193 17.438C16.9612 17.82 17.1689 18.1126 17.4424 18.3158C17.7159 18.519 18.049 18.6206 18.4416 18.6206ZM24.891 21V11.1738H27.8631V12.9661H27.9686C28.1458 12.3166 28.4383 11.8344 28.8462 11.5192C29.2542 11.2041 29.7266 11.0466 30.2636 11.0466C30.4075 11.0466 30.5567 11.0562 30.7111 11.0754C30.8656 11.0946 31.0075 11.1227 31.1368 11.1598V13.826C30.992 13.7742 30.8002 13.7355 30.5615 13.7098C30.3228 13.6842 30.1091 13.6713 29.9204 13.6713C29.5452 13.6713 29.2083 13.7539 28.9097 13.919C28.6111 14.0841 28.3775 14.3136 28.2089 14.6074C28.0402 14.9012 27.9559 15.244 27.9559 15.6359V21H24.891ZM36.0587 21.1842C35.0345 21.1842 34.1524 20.9722 33.4125 20.5481C32.6726 20.124 32.1051 19.5322 31.7101 18.7727C31.315 18.0132 31.1175 17.1295 31.1175 16.1217C31.1175 15.1097 31.315 14.2236 31.7101 13.4634C32.1051 12.7032 32.6726 12.111 33.4125 11.6869C34.1524 11.2628 35.0345 11.0508 36.0587 11.0508C37.0843 11.0508 37.9652 11.2628 38.7014 11.6869C39.4376 12.111 40.0032 12.7032 40.3982 13.4634C40.7933 14.2236 40.9908 15.1097 40.9908 16.1217C40.9908 17.1295 40.7933 18.0132 40.3982 18.7727C40.0032 19.5322 39.4376 20.124 38.7014 20.5481C37.9652 20.9722 37.0843 21.1842 36.0587 21.1842ZM36.0587 18.8407C36.4492 18.8407 36.7792 18.7264 37.0489 18.4979C37.3185 18.2694 37.5225 17.9495 37.6608 17.5383C37.7991 17.1271 37.8682 16.6505 37.8682 16.1084C37.8682 15.5604 37.7991 15.0834 37.6608 14.6775C37.5225 14.2716 37.3185 13.9562 37.0489 13.7315C36.7792 13.5067 36.4492 13.3943 36.0587 13.3943C35.6652 13.3943 35.3332 13.5067 35.0627 13.7315C34.7923 13.9562 34.5879 14.2712 34.4496 14.6764C34.3113 15.0817 34.2422 15.559 34.2422 16.1084C34.2422 16.6505 34.3113 17.1271 34.4496 17.5383C34.5879 17.9495 34.7923 18.2694 35.0627 18.4979C35.3332 18.7264 35.6652 18.8407 36.0587 18.8407ZM48.0938 21.1758C46.9167 21.1758 45.8613 20.9148 44.9274 20.3929C43.9935 19.8709 43.2561 19.1097 42.715 18.1093C42.174 17.1088 41.9034 15.8927 41.9034 14.4609C41.9034 13.0188 42.1773 11.7964 42.725 10.7938C43.2728 9.79113 44.0147 9.02959 44.9508 8.50916C45.8869 7.98873 46.9345 7.72852 48.0938 7.72852C48.8716 7.72852 49.5929 7.83521 50.2574 8.04861C50.922 8.26201 51.5087 8.57367 52.0175 8.9836C52.5264 9.39352 52.9409 9.8959 53.261 10.4907C53.5812 11.0856 53.7865 11.7645 53.877 12.5274H50.7375C50.6883 12.2053 50.5932 11.9167 50.4522 11.6615C50.3112 11.4062 50.1305 11.1881 49.9099 11.0072C49.6894 10.8263 49.4329 10.6883 49.1405 10.5934C48.8481 10.4985 48.5259 10.451 48.1739 10.451C47.5357 10.451 46.9837 10.6091 46.5179 10.9251C46.0521 11.2412 45.6947 11.6976 45.4458 12.2944C45.1969 12.8913 45.0724 13.6134 45.0724 14.4609C45.0724 15.3337 45.1995 16.0675 45.4535 16.6621C45.7076 17.2567 46.0653 17.7039 46.5267 18.0036C46.988 18.3034 47.5327 18.4533 48.1605 18.4533C48.5126 18.4533 48.8337 18.4055 49.1238 18.3098C49.414 18.2142 49.6716 18.0763 49.8966 17.896C50.1216 17.7158 50.3068 17.4977 50.4522 17.2418C50.5976 16.9858 50.6972 16.6976 50.7508 16.3769H53.8903C53.8324 16.9603 53.6646 17.5357 53.3867 18.1031C53.1089 18.6705 52.7255 19.1863 52.2367 19.6503C51.748 20.1144 51.1579 20.4847 50.4666 20.7611C49.7753 21.0376 48.9844 21.1758 48.0938 21.1758ZM58.1938 7.9043V21H55.1289V7.9043H58.1938ZM59.7765 21V11.1738H62.8415V21H59.7765ZM61.3044 10.0263C60.8675 10.0263 60.4939 9.88137 60.1836 9.59144C59.8733 9.30152 59.7182 8.95361 59.7182 8.54771C59.7182 8.13353 59.8733 7.78306 60.1836 7.4963C60.4939 7.20955 60.8675 7.06617 61.3044 7.06617C61.7414 7.06617 62.1154 7.20931 62.4264 7.49559C62.7373 7.78187 62.8928 8.13246 62.8928 8.54736C62.8928 8.95397 62.7373 9.30211 62.4264 9.5918C62.1154 9.88149 61.7414 10.0263 61.3044 10.0263ZM64.4242 21V11.1738H67.2448L67.4206 13.7184H67.204C67.3566 13.0828 67.5834 12.5684 67.8846 12.1753C68.1858 11.7821 68.5379 11.4943 68.9409 11.3118C69.3439 11.1294 69.7675 11.0381 70.2116 11.0381C70.9131 11.0381 71.4795 11.2645 71.9107 11.7173C72.342 12.1702 72.6755 12.9098 72.9113 13.9364H72.5667C72.724 13.2483 72.9735 12.691 73.3152 12.2646C73.6569 11.8381 74.0557 11.5271 74.5114 11.3315C74.9671 11.1359 75.4424 11.0381 75.9372 11.0381C76.5501 11.0381 77.0931 11.1723 77.5663 11.4407C78.0395 11.709 78.4108 12.0911 78.6802 12.5869C78.9496 13.0828 79.0844 13.6781 79.0844 14.373V21H76.0194V15.0649C76.0194 14.5697 75.8892 14.1931 75.6288 13.9352C75.3684 13.6773 75.0369 13.5483 74.6343 13.5483C74.3462 13.5483 74.096 13.6127 73.8835 13.7417C73.671 13.8706 73.5084 14.0505 73.3957 14.2815C73.283 14.5125 73.2266 14.787 73.2266 15.105V21H70.2819V15.027C70.2819 14.5711 70.1559 14.2107 69.904 13.9457C69.652 13.6808 69.3212 13.5483 68.9115 13.5483C68.6331 13.5483 68.3866 13.612 68.1722 13.7395C67.9577 13.867 67.7903 14.0498 67.6698 14.2878C67.5493 14.5258 67.4891 14.8165 67.4891 15.1598V21H64.4242ZM83.4089 21.1751C82.7834 21.1751 82.2261 21.0679 81.737 20.8536C81.248 20.6392 80.8652 20.3176 80.5887 19.8887C80.3121 19.4598 80.1738 18.9209 80.1738 18.2719C80.1738 17.7272 80.2696 17.2679 80.4611 16.8941C80.6525 16.5203 80.9176 16.2167 81.2563 15.9834C81.595 15.7501 81.9843 15.5713 82.4244 15.4472C82.8644 15.3231 83.333 15.2407 83.8301 15.1999C84.3893 15.1505 84.839 15.0986 85.1792 15.0442C85.5194 14.9898 85.7677 14.9072 85.9242 14.7965C86.0806 14.6858 86.1588 14.5303 86.1588 14.3302V14.2908C86.1588 14.0632 86.106 13.8708 86.0004 13.7135C85.8949 13.5563 85.7432 13.436 85.5453 13.3526C85.3475 13.2693 85.107 13.2277 84.8236 13.2277C84.5419 13.2277 84.2919 13.2697 84.0737 13.3539C83.8555 13.438 83.6758 13.5554 83.5346 13.7061C83.3934 13.8568 83.2945 14.0353 83.2381 14.2416L80.4551 13.8809C80.5868 13.3188 80.842 12.8259 81.2208 12.4022C81.5995 11.9784 82.0946 11.6473 82.706 11.4087C83.3173 11.1701 84.033 11.0508 84.8531 11.0508C85.4618 11.0508 86.0313 11.1226 86.5616 11.2663C87.0918 11.41 87.5562 11.6213 87.9548 11.9002C88.3534 12.1791 88.6645 12.5218 88.8882 12.9283C89.1119 13.3348 89.2238 13.8016 89.2238 14.3287V21H86.3388V19.624H86.2601C86.0819 19.9594 85.8576 20.242 85.587 20.4718C85.3164 20.7016 85.0004 20.8763 84.639 20.9958C84.2776 21.1153 83.8676 21.1751 83.4089 21.1751ZM84.3427 19.143C84.6881 19.143 84.9996 19.0733 85.2769 18.9339C85.5543 18.7944 85.7751 18.6017 85.9393 18.3557C86.1035 18.1097 86.1855 17.8254 86.1855 17.5027V16.5612C86.0988 16.6062 85.9894 16.6494 85.8572 16.6909C85.725 16.7324 85.5799 16.7699 85.4218 16.8034C85.2637 16.8369 85.1055 16.8664 84.9472 16.892C84.7889 16.9175 84.638 16.9413 84.4945 16.9634C84.1938 17.0058 83.9381 17.0774 83.7273 17.1783C83.5164 17.2792 83.3559 17.4084 83.2458 17.5658C83.1356 17.7231 83.0806 17.9114 83.0806 18.1305C83.0806 18.3502 83.1351 18.5352 83.244 18.6858C83.353 18.8364 83.502 18.9503 83.6909 19.0274C83.8798 19.1045 84.097 19.143 84.3427 19.143ZM96.1021 11.1738V13.4492H89.9666V11.1738H96.1021ZM91.2695 8.83594H94.3344V17.9903C94.3344 18.2516 94.396 18.4455 94.519 18.5719C94.642 18.6984 94.8425 18.7616 95.1205 18.7616C95.2246 18.7616 95.3721 18.7488 95.563 18.7231C95.7539 18.6974 95.8893 18.6729 95.9692 18.6494L96.3679 20.8871C96.0212 20.9858 95.6871 21.0531 95.3656 21.0891C95.044 21.1251 94.7384 21.1431 94.4487 21.1431C93.4076 21.1431 92.6174 20.8978 92.0783 20.4073C91.5391 19.9167 91.2695 19.2033 91.2695 18.2669V8.83594ZM101.624 21.1842C100.599 21.1842 99.7161 20.9811 98.9742 20.5748C98.2322 20.1685 97.663 19.5874 97.2664 18.8316C96.8699 18.0757 96.6716 17.1738 96.6716 16.1259C96.6716 15.1137 96.8699 14.2271 97.2666 13.4662C97.6633 12.7053 98.2242 12.1125 98.9494 11.6878C99.6745 11.2631 100.529 11.0508 101.513 11.0508C102.204 11.0508 102.838 11.1595 103.417 11.3769C103.995 11.5942 104.496 11.9149 104.92 12.3387C105.344 12.7626 105.673 13.2858 105.905 13.9083C106.138 14.5308 106.254 15.2494 106.254 16.0641V16.8368H97.7572V15.0466H104.794L103.361 15.472C103.361 15.0145 103.292 14.6221 103.155 14.2948C103.017 13.9675 102.814 13.7152 102.544 13.5379C102.275 13.3606 101.94 13.272 101.54 13.272C101.14 13.272 100.802 13.3613 100.527 13.54C100.252 13.7187 100.044 13.9675 99.9011 14.2864C99.7586 14.6053 99.6873 14.9801 99.6873 15.4109V16.6927C99.6873 17.1966 99.7699 17.6173 99.935 17.9549C100.1 18.2926 100.333 18.545 100.633 18.7122C100.934 18.8794 101.283 18.963 101.68 18.963C101.955 18.963 102.206 18.9241 102.431 18.8461C102.656 18.7682 102.849 18.6543 103.011 18.5044C103.173 18.3545 103.295 18.1705 103.378 17.9523L106.11 18.4009C105.948 18.9643 105.666 19.4547 105.263 19.872C104.859 20.2893 104.352 20.6123 103.74 20.8411C103.128 21.0698 102.423 21.1842 101.624 21.1842Z" fill="#0F172A"/>
<path d="M4.12032 35.9043V49H1.02093V35.9043H4.12032ZM9.22115 43.3919V49H6.15621V39.1738H9.03939L9.09494 41.6559H8.96205C9.20298 40.8723 9.58027 40.2423 10.0939 39.7657C10.6075 39.2891 11.2965 39.0508 12.1609 39.0508C12.8497 39.0508 13.4487 39.2037 13.9579 39.5096C14.4671 39.8154 14.862 40.2456 15.1425 40.8002C15.4231 41.3547 15.5633 42.0034 15.5633 42.7464V49H12.4984V43.3391C12.4984 42.7881 12.3574 42.3555 12.0755 42.0414C11.7935 41.7272 11.4011 41.5701 10.8981 41.5701C10.5674 41.5701 10.2758 41.6426 10.0232 41.7875C9.77069 41.9325 9.57388 42.14 9.43279 42.4101C9.29169 42.6803 9.22115 43.0075 9.22115 43.3919ZM22.8874 39.1738V41.4492H16.752V39.1738H22.8874ZM18.0548 36.8359H21.1198V45.9903C21.1198 46.2516 21.1813 46.4455 21.3044 46.5719C21.4274 46.6984 21.6279 46.7616 21.9059 46.7616C22.0099 46.7616 22.1574 46.7488 22.3483 46.7231C22.5392 46.6974 22.6746 46.6729 22.7545 46.6494L23.1532 48.8871C22.8066 48.9858 22.4725 49.0531 22.1509 49.0891C21.8293 49.1251 21.5237 49.1431 21.234 49.1431C20.1929 49.1431 19.4028 48.8978 18.8636 48.4073C18.3244 47.9167 18.0548 47.2033 18.0548 46.2669V36.8359ZM28.8598 49.1842C27.8348 49.1842 26.9514 48.9811 26.2095 48.5748C25.4676 48.1685 24.8984 47.5874 24.5018 46.8316C24.1052 46.0757 23.9069 45.1738 23.9069 44.1259C23.9069 43.1137 24.1053 42.2271 24.502 41.4662C24.8986 40.7053 25.4596 40.1125 26.1847 39.6878C26.9099 39.2631 27.7645 39.0508 28.7487 39.0508C29.4394 39.0508 30.0738 39.1595 30.6519 39.3769C31.2299 39.5942 31.7311 39.9149 32.1553 40.3387C32.5795 40.7626 32.908 41.2858 33.1408 41.9083C33.3735 42.5308 33.4899 43.2494 33.4899 44.0641V44.8368H24.9926V43.0466H32.0295L30.5965 43.472C30.5965 43.0145 30.5277 42.6221 30.3901 42.2948C30.2525 41.9675 30.0491 41.7152 29.7798 41.5379C29.5105 41.3606 29.1757 41.272 28.7754 41.272C28.3751 41.272 28.0375 41.3613 27.7625 41.54C27.4876 41.7187 27.2789 41.9675 27.1364 42.2864C26.9939 42.6053 26.9227 42.9801 26.9227 43.4109V44.6927C26.9227 45.1966 27.0052 45.6173 27.1703 45.9549C27.3355 46.2926 27.5683 46.545 27.8687 46.7122C28.1692 46.8794 28.5181 46.963 28.9153 46.963C29.1907 46.963 29.441 46.9241 29.6661 46.8461C29.8912 46.7682 30.0846 46.6543 30.2463 46.5044C30.408 46.3545 30.5304 46.1705 30.6134 45.9523L33.345 46.4009C33.1838 46.9643 32.9015 47.4547 32.4981 47.872C32.0947 48.2893 31.5871 48.6123 30.9753 48.8411C30.3635 49.0698 29.6583 49.1842 28.8598 49.1842ZM38.1635 35.9043V49H35.0986V35.9043H38.1635ZM43.2612 35.9043V49H40.1962V35.9043H43.2612ZM45.2939 49V39.1738H48.3588V49H45.2939ZM46.8218 38.0263C46.3849 38.0263 46.0113 37.8814 45.701 37.5914C45.3907 37.3015 45.2355 36.9536 45.2355 36.5477C45.2355 36.1335 45.3907 35.7831 45.701 35.4963C46.0113 35.2095 46.3849 35.0662 46.8218 35.0662C47.2588 35.0662 47.6328 35.2093 47.9437 35.4956C48.2547 35.7819 48.4102 36.1325 48.4102 36.5474C48.4102 36.954 48.2547 37.3021 47.9437 37.5918C47.6328 37.8815 47.2588 38.0263 46.8218 38.0263ZM54.9141 52.8848C54.0584 52.8848 53.3108 52.7769 52.6714 52.5612C52.0321 52.3454 51.5154 52.044 51.1216 51.6569C50.7277 51.2699 50.4705 50.8197 50.3501 50.3064L53.016 49.7608C53.0765 49.9394 53.1851 50.104 53.3419 50.2545C53.4987 50.4051 53.7065 50.5254 53.9652 50.6152C54.224 50.7051 54.5358 50.7501 54.9007 50.7501C55.5255 50.7501 56.0057 50.6093 56.3411 50.3278C56.6764 50.0464 56.8441 49.6127 56.8441 49.0267V47.2851H56.6146C56.4943 47.5795 56.3187 47.8466 56.0876 48.0866C55.8565 48.3266 55.5642 48.517 55.2108 48.6576C54.8573 48.7982 54.4355 48.8685 53.9451 48.8685C53.2268 48.8685 52.5697 48.7003 51.9739 48.3638C51.3782 48.0274 50.902 47.5062 50.5454 46.8003C50.1888 46.0943 50.0105 45.1886 50.0105 44.083C50.0105 42.9358 50.1947 41.9908 50.5633 41.2482C50.9319 40.5056 51.4144 39.9537 52.0109 39.5925C52.6073 39.2314 53.2505 39.0508 53.9402 39.0508C54.4617 39.0508 54.9081 39.1392 55.2793 39.316C55.6506 39.4929 55.9577 39.7205 56.2006 39.9989C56.4435 40.2774 56.6273 40.5646 56.752 40.8606H56.8413V39.1738H59.869V48.7806C59.869 49.6823 59.6596 50.4379 59.2409 51.0475C58.8222 51.6571 58.2413 52.1157 57.4981 52.4233C56.7549 52.731 55.8935 52.8848 54.9141 52.8848ZM54.997 46.6206C55.3898 46.6206 55.7234 46.52 55.9978 46.3188C56.2721 46.1176 56.4824 45.8263 56.6288 45.445C56.7752 45.0637 56.8484 44.6069 56.8484 44.0746C56.8484 43.5377 56.7755 43.0731 56.6299 42.6808C56.4842 42.2886 56.2742 41.985 55.9999 41.7701C55.7255 41.5552 55.3913 41.4477 54.997 41.4477C54.6031 41.4477 54.2693 41.5573 53.9958 41.7765C53.7223 41.9956 53.5149 42.3016 53.3737 42.6946C53.2325 43.0875 53.1619 43.5475 53.1619 44.0746C53.1619 44.6015 53.2328 45.0559 53.3748 45.438C53.5167 45.82 53.7244 46.1126 53.9979 46.3158C54.2714 46.519 54.6045 46.6206 54.997 46.6206ZM66.4682 49.1842C65.4432 49.1842 64.5598 48.9811 63.8179 48.5748C63.076 48.1685 62.5068 47.5874 62.1102 46.8316C61.7136 46.0757 61.5153 45.1738 61.5153 44.1259C61.5153 43.1137 61.7137 42.2271 62.1104 41.4662C62.507 40.7053 63.068 40.1125 63.7931 39.6878C64.5183 39.2631 65.3729 39.0508 66.3571 39.0508C67.0478 39.0508 67.6822 39.1595 68.2603 39.3769C68.8383 39.5942 69.3395 39.9149 69.7637 40.3387C70.1879 40.7626 70.5164 41.2858 70.7491 41.9083C70.9819 42.5308 71.0982 43.2494 71.0982 44.0641V44.8368H62.601V43.0466H69.6379L68.2049 43.472C68.2049 43.0145 68.1361 42.6221 67.9985 42.2948C67.8609 41.9675 67.6575 41.7152 67.3882 41.5379C67.1189 41.3606 66.7841 41.272 66.3838 41.272C65.9835 41.272 65.6459 41.3613 65.3709 41.54C65.096 41.7187 64.8873 41.9675 64.7448 42.2864C64.6023 42.6053 64.5311 42.9801 64.5311 43.4109V44.6927C64.5311 45.1966 64.6136 45.6173 64.7787 45.9549C64.9439 46.2926 65.1767 46.545 65.4771 46.7122C65.7776 46.8794 66.1264 46.963 66.5237 46.963C66.7991 46.963 67.0494 46.9241 67.2745 46.8461C67.4996 46.7682 67.693 46.6543 67.8547 46.5044C68.0164 46.3545 68.1388 46.1705 68.2218 45.9523L70.9534 46.4009C70.7922 46.9643 70.5099 47.4547 70.1065 47.872C69.7031 48.2893 69.1955 48.6123 68.5837 48.8411C67.9719 49.0698 67.2667 49.1842 66.4682 49.1842ZM75.7719 43.3919V49H72.707V39.1738H75.5902L75.6457 41.6559H75.5128C75.7538 40.8723 76.131 40.2423 76.6447 39.7657C77.1583 39.2891 77.8473 39.0508 78.7117 39.0508C79.4005 39.0508 79.9995 39.2037 80.5087 39.5096C81.0179 39.8154 81.4127 40.2456 81.6933 40.8002C81.9738 41.3547 82.1141 42.0034 82.1141 42.7464V49H79.0492V43.3391C79.0492 42.7881 78.9082 42.3555 78.6262 42.0414C78.3443 41.7272 77.9518 41.5701 77.4489 41.5701C77.1182 41.5701 76.8266 41.6426 76.574 41.7875C76.3215 41.9325 76.1247 42.14 75.9836 42.4101C75.8425 42.6803 75.7719 43.0075 75.7719 43.3919ZM88.695 49.1842C87.6708 49.1842 86.7898 48.9722 86.0521 48.5481C85.3144 48.124 84.7481 47.5322 84.353 46.7727C83.958 46.0132 83.7605 45.1295 83.7605 44.1217C83.7605 43.1097 83.958 42.2236 84.353 41.4634C84.7481 40.7032 85.3144 40.111 86.0521 39.6869C86.7898 39.2628 87.6708 39.0508 88.695 39.0508C89.3255 39.0508 89.9006 39.1323 90.4205 39.2955C90.9403 39.4586 91.3968 39.6915 91.79 39.9942C92.1832 40.2969 92.5013 40.6635 92.7443 41.0939C92.9874 41.5243 93.1473 42.0068 93.2242 42.5415L90.3944 43.0122C90.3464 42.7558 90.2747 42.5277 90.1795 42.3279C90.0842 42.1281 89.9671 41.9583 89.8281 41.8186C89.6891 41.679 89.5283 41.5733 89.3456 41.5017C89.1629 41.4301 88.9594 41.3943 88.7351 41.3943C88.3416 41.3943 88.0074 41.5022 87.7324 41.7181C87.4575 41.934 87.2476 42.2445 87.1026 42.6497C86.9577 43.055 86.8852 43.5412 86.8852 44.1084C86.8852 44.6683 86.9577 45.1527 87.1026 45.5617C87.2476 45.9707 87.4575 46.2861 87.7324 46.5079C88.0074 46.7298 88.3416 46.8407 88.7351 46.8407C88.9608 46.8407 89.1657 46.8034 89.3498 46.7289C89.5339 46.6544 89.6972 46.5454 89.8399 46.4021C89.9825 46.2588 90.1014 46.0825 90.1967 45.8732C90.292 45.6639 90.3614 45.4274 90.405 45.1637L93.2326 45.6278C93.1572 46.1786 92.9975 46.6721 92.7538 47.1084C92.51 47.5447 92.1924 47.9178 91.8007 48.2278C91.4091 48.5378 90.9515 48.7746 90.428 48.9385C89.9046 49.1023 89.3269 49.1842 88.695 49.1842ZM99.4271 49.1842C98.4022 49.1842 97.5188 48.9811 96.7769 48.5748C96.035 48.1685 95.4657 47.5874 95.0692 46.8316C94.6726 46.0757 94.4743 45.1738 94.4743 44.1259C94.4743 43.1137 94.6727 42.2271 95.0694 41.4662C95.466 40.7053 96.027 40.1125 96.7521 39.6878C97.4773 39.2631 98.3319 39.0508 99.3161 39.0508C100.007 39.0508 100.641 39.1595 101.219 39.3769C101.797 39.5942 102.298 39.9149 102.723 40.3387C103.147 40.7626 103.475 41.2858 103.708 41.9083C103.941 42.5308 104.057 43.2494 104.057 44.0641V44.8368H95.56V43.0466H102.597L101.164 43.472C101.164 43.0145 101.095 42.6221 100.957 42.2948C100.82 41.9675 100.616 41.7152 100.347 41.5379C100.078 41.3606 99.7431 41.272 99.3428 41.272C98.9425 41.272 98.6049 41.3613 98.3299 41.54C98.055 41.7187 97.8463 41.9675 97.7038 42.2864C97.5613 42.6053 97.4901 42.9801 97.4901 43.4109V44.6927C97.4901 45.1966 97.5726 45.6173 97.7377 45.9549C97.9028 46.2926 98.1356 46.545 98.4361 46.7122C98.7366 46.8794 99.0854 46.963 99.4827 46.963C99.7581 46.963 100.008 46.9241 100.233 46.8461C100.459 46.7682 100.652 46.6543 100.814 46.5044C100.975 46.3545 101.098 46.1705 101.181 45.9523L103.912 46.4009C103.751 46.9643 103.469 47.4547 103.065 47.872C102.662 48.2893 102.155 48.6123 101.543 48.8411C100.931 49.0698 100.226 49.1842 99.4271 49.1842Z" fill="#10B981"/>
</svg>
