<svg width="40" height="40" viewBox="0 0 40 40" fill="none" xmlns="http://www.w3.org/2000/svg">
<rect x="0.5" y="0.5" width="39" height="39" rx="11.5" fill="white"/>
<rect x="0.5" y="0.5" width="39" height="39" rx="11.5" stroke="#E2E8F0"/>
<path d="M18.9584 21.25C18.7222 21.25 18.5243 21.1701 18.3646 21.0104C18.2049 20.8507 18.125 20.6528 18.125 20.4167V17.0833C18.125 16.8472 18.2049 16.6493 18.3646 16.4896C18.5243 16.3299 18.7222 16.25 18.9584 16.25H21.4584C21.6945 16.25 21.8924 16.3299 22.0521 16.4896C22.2118 16.6493 22.2917 16.8472 22.2917 17.0833V20.4167C22.2917 20.6528 22.2118 20.8507 22.0521 21.0104C21.8924 21.1701 21.6945 21.25 21.4584 21.25H18.9584V21.25M19.375 20H21.0417V17.5H19.375V20V20M13.125 21.25C12.8889 21.25 12.691 21.1701 12.5313 21.0104C12.3715 20.8507 12.2917 20.6528 12.2917 20.4167V17.0833C12.2917 16.8472 12.3715 16.6493 12.5313 16.4896C12.691 16.3299 12.8889 16.25 13.125 16.25H15.625C15.8611 16.25 16.059 16.3299 16.2188 16.4896C16.3785 16.6493 16.4584 16.8472 16.4584 17.0833V17.9167H15.2084V17.5H13.5417V20H15.2084V19.5833H16.4584V20.4167C16.4584 20.6528 16.3785 20.8507 16.2188 21.0104C16.059 21.1701 15.8611 21.25 15.625 21.25H13.125V21.25M23.9584 23.75V21.6667C23.9584 21.4306 24.0382 21.2326 24.1979 21.0729C24.3577 20.9132 24.5556 20.8333 24.7917 20.8333H26.4584V20H23.9584V18.75H26.875C27.1111 18.75 27.309 18.8299 27.4688 18.9896C27.6285 19.1493 27.7084 19.3472 27.7084 19.5833V20.8333C27.7084 21.0694 27.6285 21.2674 27.4688 21.4271C27.309 21.5868 27.1111 21.6667 26.875 21.6667H25.2084V22.5H27.7084V23.75H23.9584V23.75" fill="#94A3B8"/>
</svg>
