<svg width="34" height="30" viewBox="0 0 34 30" fill="none" xmlns="http://www.w3.org/2000/svg">
<rect width="34" height="29.2" rx="8" fill="#F59E0B" fill-opacity="0.1"/>
<path d="M9 12.2C8.71667 12.2 8.47917 12.1042 8.2875 11.9125C8.09583 11.7208 8 11.4833 8 11.2C8 10.9167 8.09583 10.6792 8.2875 10.4875C8.47917 10.2958 8.71667 10.2 9 10.2H12C12.55 10.2 13.0208 10.3958 13.4125 10.7875C13.8042 11.1792 14 11.65 14 12.2H9ZM11 21.2C11.8333 21.2 12.5417 20.9083 13.125 20.325C13.7083 19.7417 14 19.0333 14 18.2C14 17.3667 13.7083 16.6583 13.125 16.075C12.5417 15.4917 11.8333 15.2 11 15.2C10.1667 15.2 9.45833 15.4917 8.875 16.075C8.29167 16.6583 8 17.3667 8 18.2C8 19.0333 8.29167 19.7417 8.875 20.325C9.45833 20.9083 10.1667 21.2 11 21.2ZM24.5 21.2C24.9167 21.2 25.2708 21.0542 25.5625 20.7625C25.8542 20.4708 26 20.1167 26 19.7C26 19.2833 25.8542 18.9292 25.5625 18.6375C25.2708 18.3458 24.9167 18.2 24.5 18.2C24.0833 18.2 23.7292 18.3458 23.4375 18.6375C23.1458 18.9292 23 19.2833 23 19.7C23 20.1167 23.1458 20.4708 23.4375 20.7625C23.7292 21.0542 24.0833 21.2 24.5 21.2ZM11 19.7C10.5833 19.7 10.2292 19.5542 9.9375 19.2625C9.64583 18.9708 9.5 18.6167 9.5 18.2C9.5 17.7833 9.64583 17.4292 9.9375 17.1375C10.2292 16.8458 10.5833 16.7 11 16.7C11.4167 16.7 11.7708 16.8458 12.0625 17.1375C12.3542 17.4292 12.5 17.7833 12.5 18.2C12.5 18.6167 12.3542 18.9708 12.0625 19.2625C11.7708 19.5542 11.4167 19.7 11 19.7ZM25 16.225C25.4333 16.3083 25.7917 16.4208 26.075 16.5625C26.3583 16.7042 26.6667 16.9333 27 17.25V11.2C27 10.65 26.8042 10.1792 26.4125 9.7875C26.0208 9.39583 25.55 9.2 25 9.2H18.7L17.65 8.1L19.05 6.7L18.35 6L14.8 9.55L15.55 10.25L16.95 8.85L18 9.9V12.2C18 12.75 17.8042 13.2208 17.4125 13.6125C17.0208 14.0042 16.55 14.2 16 14.2H13.975C14.3583 14.4833 14.6667 14.775 14.9 15.075C15.1333 15.375 15.3667 15.75 15.6 16.2H16C17.1 16.2 18.0417 15.8083 18.825 15.025C19.6083 14.2417 20 13.3 20 12.2V11.2H25V16.225ZM21.025 19.2C21.125 18.75 21.2458 18.3875 21.3875 18.1125C21.5292 17.8375 21.75 17.5333 22.05 17.2H15.9C15.9667 17.5833 16 17.9167 16 18.2C16 18.4833 15.9667 18.8167 15.9 19.2H21.025ZM24.5 23.2C23.5333 23.2 22.7083 22.8583 22.025 22.175C21.3417 21.4917 21 20.6667 21 19.7C21 18.7333 21.3417 17.9083 22.025 17.225C22.7083 16.5417 23.5333 16.2 24.5 16.2C25.4667 16.2 26.2917 16.5417 26.975 17.225C27.6583 17.9083 28 18.7333 28 19.7C28 20.6667 27.6583 21.4917 26.975 22.175C26.2917 22.8583 25.4667 23.2 24.5 23.2ZM11 23.2C9.61667 23.2 8.4375 22.7125 7.4625 21.7375C6.4875 20.7625 6 19.5833 6 18.2C6 16.8167 6.4875 15.6375 7.4625 14.6625C8.4375 13.6875 9.61667 13.2 11 13.2C12.3833 13.2 13.5625 13.6875 14.5375 14.6625C15.5125 15.6375 16 16.8167 16 18.2C16 19.5833 15.5125 20.7625 14.5375 21.7375C13.5625 22.7125 12.3833 23.2 11 23.2Z" fill="#F59E0B"/>
</svg>
