<svg width="40" height="40" viewBox="0 0 40 40" fill="none" xmlns="http://www.w3.org/2000/svg">
<rect x="0.5" y="0.5" width="39" height="39" rx="11.5" fill="white"/>
<rect x="0.5" y="0.5" width="39" height="39" rx="11.5" stroke="#E2E8F0"/>
<path d="M20.2291 25.8333C20.3958 25.8194 20.5382 25.7534 20.6562 25.6354C20.7743 25.5173 20.8333 25.375 20.8333 25.2083C20.8333 25.0138 20.7708 24.8576 20.6458 24.7395C20.5208 24.6215 20.3611 24.5694 20.1666 24.5833C19.5972 24.625 18.993 24.4687 18.3541 24.1145C17.7153 23.7604 17.3125 23.118 17.1458 22.1875C17.118 22.0347 17.0451 21.9097 16.9271 21.8125C16.809 21.7152 16.6736 21.6666 16.5208 21.6666C16.3264 21.6666 16.1666 21.7395 16.0416 21.8854C15.9166 22.0312 15.875 22.2013 15.9166 22.3958C16.1528 23.6597 16.7083 24.5625 17.5833 25.1041C18.4583 25.6458 19.3403 25.8888 20.2291 25.8333V25.8333M20 28.3333C18.0972 28.3333 16.5104 27.6805 15.2396 26.375C13.9687 25.0694 13.3333 23.4444 13.3333 21.5C13.3333 20.1111 13.8854 18.6007 14.9896 16.9687C16.0937 15.3368 17.7639 13.5694 20 11.6666C22.2361 13.5694 23.9062 15.3368 25.0104 16.9687C26.1146 18.6007 26.6666 20.1111 26.6666 21.5C26.6666 23.4444 26.0312 25.0694 24.7604 26.375C23.4896 27.6805 21.9028 28.3333 20 28.3333V28.3333M20 26.6666C21.4444 26.6666 22.6389 26.177 23.5833 25.1979C24.5278 24.2187 25 22.9861 25 21.5C25 20.4861 24.5798 19.3402 23.7396 18.0625C22.8993 16.7847 21.6528 15.3888 20 13.875C18.3472 15.3888 17.1007 16.7847 16.2604 18.0625C15.4201 19.3402 15 20.4861 15 21.5C15 22.9861 15.4722 24.2187 16.4166 25.1979C17.3611 26.177 18.5555 26.6666 20 26.6666V26.6666M20 20V20V20V20V20V20V20V20V20V20" fill="#94A3B8"/>
</svg>
