<svg width="28" height="28" viewBox="0 0 28 28" fill="none" xmlns="http://www.w3.org/2000/svg">
<rect width="28" height="28" rx="8" fill="#2F7F33" fill-opacity="0.1"/>
<path d="M14 20C15.6667 20 17.075 19.4167 18.225 18.25C19.375 17.0833 19.9667 15.6667 20 14V8H14C12.3333 8.03333 10.9167 8.625 9.75 9.775C8.58333 10.925 8 12.3333 8 14C8 15.6667 8.58333 17.0833 9.75 18.25C10.9167 19.4167 12.3333 20 14 20ZM12.825 18.325L17.425 14.225C17.575 14.0917 17.6167 13.9333 17.55 13.75C17.4833 13.5667 17.35 13.4583 17.15 13.425L13.55 13.075L15.7 10.1C15.75 10.0167 15.7792 9.9375 15.7875 9.8625C15.7958 9.7875 15.7667 9.71667 15.7 9.65C15.6333 9.56667 15.55 9.52917 15.45 9.5375C15.35 9.54583 15.2583 9.58333 15.175 9.65L10.6 13.75C10.45 13.8833 10.4083 14.0417 10.475 14.225C10.5417 14.4083 10.675 14.5167 10.875 14.55L14.475 14.9L12.3 17.875C12.25 17.9583 12.225 18.0375 12.225 18.1125C12.225 18.1875 12.2583 18.2583 12.325 18.325C12.3917 18.3917 12.4708 18.425 12.5625 18.425C12.6542 18.425 12.7417 18.3917 12.825 18.325ZM14 22C13.0667 22 12.1875 21.8542 11.3625 21.5625C10.5375 21.2708 9.78333 20.8583 9.1 20.325L7.725 21.7C7.625 21.8 7.5125 21.875 7.3875 21.925C7.2625 21.975 7.13333 22 7 22C6.71667 22 6.47917 21.9042 6.2875 21.7125C6.09583 21.5208 6 21.2833 6 21C6 20.8667 6.025 20.7375 6.075 20.6125C6.125 20.4875 6.2 20.375 6.3 20.275L7.675 18.9C7.14167 18.2167 6.72917 17.4625 6.4375 16.6375C6.14583 15.8125 6 14.9333 6 14C6 11.7667 6.775 9.875 8.325 8.325C9.875 6.775 11.7667 6 14 6H22V14C22 16.2333 21.225 18.125 19.675 19.675C18.125 21.225 16.2333 22 14 22Z" fill="#2F7F33"/>
</svg>
