<svg width="40" height="40" viewBox="0 0 40 40" fill="none" xmlns="http://www.w3.org/2000/svg">
<rect x="0.5" y="0.5" width="39" height="39" rx="11.5" fill="white"/>
<rect x="0.5" y="0.5" width="39" height="39" rx="11.5" stroke="#E2E8F0"/>
<path d="M15.8333 28.3333V25H10L13.2083 20H11.6667L17.5 11.6666L20 15.25L22.5 11.6666L28.3333 20H26.7917L30 25H24.1667V28.3333H20.8333V25H19.1667V28.3333H15.8333V28.3333M23.9375 23.3333H26.9583L23.7292 18.3333H25.125L22.5 14.5833L21.0208 16.6875L23.3333 20H21.7917L23.9375 23.3333V23.3333M13.0417 23.3333H21.9583L18.7292 18.3333H20.125L17.5 14.5833L14.875 18.3333H16.2708L13.0417 23.3333V23.3333M13.0417 23.3333H16.2708H14.875H17.5H20.125H18.7292H21.9583H13.0417V23.3333M23.9375 23.3333H21.7917H23.3333H21.0208H22.5H25.125H23.7292H26.9583H23.9375V23.3333M20.8333 25H24.1667V25H20.8333V25V25M25.0208 25V25V25V25V25V25V25V25V25V25" fill="#94A3B8"/>
</svg>
