<svg width="32" height="32" viewBox="0 0 32 32" fill="none" xmlns="http://www.w3.org/2000/svg">
<rect width="32" height="32" rx="8" fill="#2F7F33" fill-opacity="0.1"/>
<path d="M9 26C8.45 26 7.97917 25.8042 7.5875 25.4125C7.19583 25.0208 7 24.55 7 24V12.725C6.7 12.5417 6.45833 12.3042 6.275 12.0125C6.09167 11.7208 6 11.3833 6 11V8C6 7.45 6.19583 6.97917 6.5875 6.5875C6.97917 6.19583 7.45 6 8 6H24C24.55 6 25.0208 6.19583 25.4125 6.5875C25.8042 6.97917 26 7.45 26 8V11C26 11.3833 25.9083 11.7208 25.725 12.0125C25.5417 12.3042 25.3 12.5417 25 12.725V24C25 24.55 24.8042 25.0208 24.4125 25.4125C24.0208 25.8042 23.55 26 23 26H9ZM9 13V24H23V13H9ZM8 11H24V8H8V11ZM13 18H19V16H13V18Z" fill="#2F7F33"/>
</svg>
